<svg width="118" height="100" viewBox="0 0 118 100" fill="none" xmlns="http://www.w3.org/2000/svg">
<g clip-path="url(#clip0)">
<path d="M45.0727 75.1956C42.9665 73.3034 40.149 72.2676 37.0829 72.2676C29.4246 72.2676 22.0909 78.4964 20.7374 86.1686C20.0813 89.9045 20.9238 93.4056 23.1267 96.0298C25.2675 98.5848 28.4717 100.007 32.1247 100.007C35.7571 100.007 38.9889 98.8818 41.7304 96.6996C41.9169 96.5546 41.9514 96.2784 41.8064 96.085C41.7718 96.0367 41.7442 95.9952 41.7166 95.9607C40.8258 94.6763 40.3217 93.3228 40.0316 92.2041C39.9488 91.8795 39.5551 91.7621 39.2996 91.9762C37.518 93.4954 35.3427 94.4829 33.1951 94.4829C31.0267 94.4829 29.1346 93.6473 27.8571 92.1212C26.5519 90.5605 26.1099 88.5786 26.4967 86.3619C27.2908 81.8802 31.5239 77.9578 36.0126 77.9578C38.0773 77.9578 39.9142 78.745 41.1849 80.14C41.392 80.3679 41.758 80.3264 41.91 80.0571C42.566 78.8831 43.6433 77.2327 45.0934 75.8516C45.273 75.6789 45.2661 75.3751 45.0727 75.1956Z" fill="#FEC232"/>
<path d="M111.754 79.4001C111.754 74.5938 109.164 72.2666 103.84 72.2666C100.656 72.2666 97.9838 73.2333 95.8845 75.1462L95.7395 75.2774L95.6152 75.1117C94.1858 73.2195 91.6928 72.2666 88.2055 72.2666C85.2223 72.2666 82.7017 73.0469 80.7129 74.573L80.4781 74.7526C80.4781 74.7526 80.1605 73.3369 79.9947 72.6118C79.9464 72.3771 79.7185 72.2251 79.4837 72.2666C78.8415 72.3771 77.6952 72.5773 77.6952 72.5773C77.6952 72.5773 75.5406 72.9502 74.5462 73.1229C74.2907 73.1712 74.1319 73.4198 74.194 73.6684C74.5531 75.1255 74.7327 76.5273 74.7327 77.9223C74.7327 78.8821 74.6912 79.6072 74.6015 80.0699C74.6015 80.0699 71.7495 95.1241 71.0934 98.6183C71.0244 98.9912 71.3075 99.3296 71.6804 99.3296H76.3969C76.756 99.3296 77.0668 99.0741 77.1358 98.715C77.7504 95.4418 80.6163 80.2011 80.6163 80.2011L80.637 80.1666C81.2654 79.3862 81.9352 78.5438 82.9711 77.943C84.0138 77.3353 85.1394 77.1695 85.975 77.1695C88.7649 77.1695 90.1805 78.0949 90.1805 79.9042C90.1805 80.139 90.1667 80.353 90.1253 80.5533C90.1253 80.5533 87.3423 95.1863 86.6863 98.6252C86.6172 98.9981 86.9003 99.3365 87.2733 99.3365H92.0105C92.3696 99.3365 92.6803 99.081 92.7494 98.7219C93.364 95.4349 96.2298 80.1113 96.2298 80.1113L96.2574 80.0837C96.7823 79.3655 97.5695 78.7026 98.6192 78.0949C99.6757 77.4803 100.67 77.1695 101.575 77.1695C104.157 77.1695 105.476 78.3849 105.476 80.795C105.476 81.4027 105.421 81.9896 105.318 82.5352C105.318 82.5352 102.956 95.4072 102.369 98.6183C102.3 98.9843 102.583 99.3296 102.963 99.3296H107.631C107.99 99.3296 108.301 99.0741 108.37 98.715C108.95 95.6075 111.491 81.817 111.491 81.817C111.664 80.9193 111.754 80.1113 111.754 79.4001Z" fill="#FEC232"/>
<path d="M69.5879 77.5363C68.0135 74.3183 64.7954 72.6678 60.0375 72.6333C52.5794 72.5711 45.439 78.6412 44.1063 86.1683C43.5055 89.5727 44.2375 92.8045 46.1503 95.2422C48.1944 97.8387 51.6057 99.4063 55.4107 99.6825C59.7267 99.9933 63.2486 99.2268 66.1973 97.2518C66.5149 97.0377 66.7359 96.7131 66.8188 96.3402C67.0467 95.332 67.5232 93.212 67.8339 91.8447C67.9237 91.4441 67.4748 91.1403 67.1364 91.382C64.1601 93.5296 60.2861 94.4343 56.5502 94.1373C53.6843 93.9094 50.5837 92.1554 49.7827 89.3725C49.7343 89.2136 49.8724 89.0617 50.0382 89.0824C51.6541 89.3448 58.6978 90.2909 63.8908 87.9568C66.9569 86.5757 69.0079 84.6214 69.7675 82.4807C70.4649 80.5126 70.1128 78.5859 69.5879 77.5363ZM63.7734 81.8868C62.4614 83.8894 57.0888 84.8976 50.6459 84.2968C50.4387 84.2761 50.3075 84.0482 50.4042 83.8618C51.9096 80.8302 55.3417 78.6066 58.974 78.1716C61.1217 77.9161 63.076 78.5652 63.8356 79.7806C64.2499 80.4435 64.2292 81.1893 63.7734 81.8868Z" fill="#FEC232"/>
<path d="M112.975 53.5318C112.996 53.4213 113.976 48.0211 113.976 48.0211H106.878C106.878 48.0211 105.959 53.2832 105.89 53.6078C105.828 53.9323 105.524 53.8978 105.524 53.8978H102.389C102.389 53.8978 102.064 53.9392 102.126 53.5732C102.196 53.2003 103.107 48.0211 103.107 48.0211H96.1324C96.1324 48.0211 95.138 53.5801 95.1035 53.7182C95.0758 53.8495 95.0137 53.8978 94.917 53.8978H91.7335C91.6023 53.8909 91.5333 53.8149 91.5609 53.6699C91.7957 52.3855 92.9351 46.0185 92.9765 45.7768C93.0111 45.5627 93.1216 45.4799 93.3978 45.4799H103.556L103.756 44.3335H94.7375C94.5924 44.3335 94.4681 44.2576 94.4958 44.1402C94.5994 43.5187 94.9377 41.6403 94.9446 41.5437C94.9654 41.4263 95.0758 41.302 95.2347 41.302H115.544C115.979 41.302 117.692 41.1915 117.305 43.0974C117.277 43.2286 117.174 43.7949 117.112 44.1126C117.084 44.2438 117.015 44.3404 116.842 44.3404H107.52L107.313 45.4868H116.117C118.085 45.4868 117.616 47.2684 117.512 47.9659C117.45 48.4009 116.697 52.5719 116.518 53.5042C116.497 53.6216 116.393 53.6906 116.304 53.6906H113.093C113.01 53.6837 112.961 53.6492 112.975 53.5318ZM94.7996 62.3157H100.49L100.745 60.8586H95.0551L94.7996 62.3157ZM95.6766 57.3299L95.4487 58.635H101.132L101.367 57.3299H95.6766ZM101.284 53.6561H95.9252L96.2636 51.7432H101.622L101.284 53.6561ZM96.8368 48.9603H102.126L101.795 50.7488H96.4915L96.8368 48.9603ZM114.246 66.2312C114.246 66.2795 113.783 68.8553 113.769 68.8899C113.749 68.9244 113.707 68.9865 113.61 68.9865C113.528 68.9865 102.789 69.0003 102.789 69.0003C100.49 69.0003 99.523 67.9231 99.9029 65.7892L100.055 64.9191H92.507C90.746 64.9191 90.9187 63.7383 91.0084 63.1858C91.1535 62.2881 92.0995 57.0467 92.2584 56.2319C92.4862 55.0787 93.1975 54.7058 94.33 54.7058H112.878C115.358 54.7058 114.881 56.294 114.784 56.9639C114.688 57.6268 113.61 63.5864 113.61 63.5864C113.231 65.0089 111.435 64.9191 111.435 64.9191H103.763L103.659 65.5061C103.59 65.9412 103.784 66.1552 104.24 66.1552H114.191C114.246 66.1552 114.26 66.1898 114.246 66.2312ZM110.227 62.3157L110.482 60.8586H104.481L104.219 62.3157H110.227ZM111.104 57.3299H105.103L104.875 58.635H110.869L111.104 57.3299ZM106.691 53.6561L107.029 51.7432H112.526L112.133 53.6492L106.691 53.6561ZM112.63 50.7488H107.209L107.52 48.9327H112.996L112.63 50.7488Z" fill="#F26522"/>
<path d="M88.0326 59.4297H80.2915C80.2915 59.4297 80.4986 58.6632 80.5124 58.5458C80.5262 58.4146 80.4434 58.387 80.4019 58.387H77.253C77.2185 58.387 77.0665 58.3732 77.032 58.5458C77.0044 58.7392 76.811 59.4297 76.811 59.4297H69.3737C69.2149 59.4297 68.9663 59.4988 68.9248 59.7681C68.8834 59.996 68.5105 62.0262 68.4345 62.4751C68.4207 62.5303 68.4484 62.558 68.4898 62.558H75.1054C73.9936 64.1739 71.4247 65.7898 67.9788 66.0867C67.9028 66.0867 67.7992 66.1212 67.7647 66.2939C67.7371 66.5011 67.2675 68.6694 67.2951 68.8628C67.3089 69.0561 67.4332 69.0561 67.4954 69.0561C72.281 68.7247 75.6233 67.1778 77.7709 64.0496C79.1175 67.2607 82.5565 68.8282 86.32 69.0492C86.3891 69.0561 86.5617 69.0354 86.6308 68.8628C86.7068 68.6901 87.1004 66.432 87.1004 66.432C87.1004 66.432 87.1487 66.2732 87.1073 66.1696C87.0866 66.1005 86.9485 66.1005 86.8863 66.0867C84.5177 65.6517 82.2527 64.8023 80.9475 62.558H87.5423C87.6597 62.558 87.7702 62.4751 87.7978 62.3508C87.8255 62.192 88.2467 59.7681 88.2743 59.6783C88.2951 59.4435 88.1569 59.4297 88.0326 59.4297Z" fill="#F26522"/>
<path d="M88.267 42.4145H81.5686C81.4374 41.7792 81.2164 40.916 81.1957 40.916C81.1612 40.916 77.37 41.1922 77.3838 41.2337C77.5357 41.6756 77.6738 42.0278 77.7636 42.4145H73.0264C73.0264 42.4145 72.7156 42.3593 72.6534 42.7115C72.5913 43.036 70.2503 56.3362 69.9119 58.2767C69.8843 58.4217 70.0155 58.5046 70.1398 58.5046H72.978C73.123 58.5046 73.1783 58.4148 73.2059 58.3112C73.2335 58.2076 73.5995 56.1221 73.5995 56.1221L74.884 58.104C76.5689 56.8679 77.7567 55.2244 78.4542 53.1804L77.7014 57.5102H80.3946L80.809 55.1346C81.5617 55.7354 82.3351 56.4881 83.1431 57.3928L84.8695 55.2589C84.1996 54.6443 81.6376 52.8765 81.6376 52.8765H84.5104L84.9178 50.7496H83.951C84.2134 50.4872 84.6347 49.9485 85.0214 49.3685L83.1776 48.8367C82.8806 49.4582 82.7287 50.1764 82.2384 50.7496H81.6169L82.0658 48.2152H85.339L85.5462 46.8963C85.6429 46.4612 85.3667 46.1436 84.8971 46.1297C84.5863 46.1436 76.2375 46.109 76.2375 46.109L75.8576 48.2152H79.3588L78.9168 50.7496H78.4127C78.3368 50.4872 78.2677 49.9623 78.1986 49.6309C78.1227 49.327 78.0743 49.1544 77.9777 48.8644L75.7195 49.1751C75.9336 49.6309 76.341 50.2248 76.4722 50.7565H75.4226L75.0083 52.8834H76.3825C75.8991 54.1195 74.9806 55.0932 73.6409 55.7838L75.4986 45.2665H85.2286C86.3127 45.2665 86.5959 45.7154 86.3887 47.0896C86.3404 47.4004 84.8211 55.9771 84.462 58.0557C84.4068 58.3457 84.4897 58.5046 84.6416 58.5046H87.245C87.4936 58.5046 87.7077 58.3457 87.7491 58.0764C88.1427 55.8735 89.9175 45.7499 90.0556 44.9696C90.2904 43.768 90.3801 42.4145 88.267 42.4145Z" fill="#F26522"/>
<path d="M69.0839 47.9111L71.3766 45.6875C70.0024 44.0647 68.2898 42.138 67.2816 41.3301L65.0234 43.6089C65.3963 43.9059 67.7442 46.1709 69.0839 47.9111Z" fill="#F26522"/>
<path d="M70.1471 51.8331C68.7729 50.2103 67.0603 48.2905 66.0521 47.4688L63.7939 49.7545C64.1738 50.0514 66.5148 52.3165 67.8544 54.0636L70.1471 51.8331Z" fill="#F26522"/>
<path d="M65.6099 55.3203C64.8641 57.1158 62.3573 62.6679 59.9473 66.8734L63.186 68.5307C65.0367 65.513 68.1028 58.7248 68.8003 56.6807L65.6099 55.3203Z" fill="#F26522"/>
<path d="M33.8993 56.4814C39.7967 56.2811 45.5007 54.0575 50.2932 49.7277C52.0679 48.1256 53.4698 46.4199 54.5539 44.9007C55.0719 44.1687 54.1603 43.271 53.4421 43.8165C44.092 50.9086 31.2752 51.171 21.3104 43.416C11.9602 36.1375 7.72016 23.8179 9.55705 12.2579C9.6123 11.9127 9.45347 11.6295 9.21177 11.4707C2.51334 24.8814 5.88327 42.0142 17.4432 51.0053C22.4498 54.9 28.216 56.6679 33.8993 56.4814Z" fill="#F26522"/>
<path d="M51.2185 9.45485C48.104 4.4552 42.7453 0.905722 36.1919 0.0148992C36.1781 0.0148992 36.1712 0.0148992 36.1574 0.0079936C35.2804 -0.109402 34.9213 1.09908 35.7223 1.47889C43.7397 5.28387 48.5805 13.688 47.2616 23.2177C45.9978 32.3331 39.4444 39.9983 31.0127 43.3959C30.695 43.5202 30.5431 43.7964 30.5293 44.0795C42.1998 43.2163 52.4131 34.2183 53.9738 22.8724C54.6575 17.9142 53.5871 13.2598 51.2185 9.45485Z" fill="#F26522"/>
<path d="M14.4121 13.5911C12.8514 16.5122 12.4647 20.0271 13.4246 23.5075C13.4315 23.5352 13.4384 23.5697 13.4522 23.5973C13.687 24.4191 14.9024 24.2672 14.93 23.4178C15.075 18.2317 18.1756 13.5013 23.4653 11.3537C28.7481 9.20605 34.8458 10.1935 39.4449 13.4392C39.728 13.6394 40.0526 13.6187 40.2943 13.4737C35.9092 7.5418 27.7882 4.9522 21.076 7.673C18.0582 8.9022 15.7932 11.0222 14.4121 13.5911Z" fill="#F26522"/>
<path d="M17.4431 51.0044C5.88317 42.0133 2.51324 24.8805 9.21167 11.4698C8.96307 11.3041 8.62469 11.2765 8.34847 11.4629C-1.80967 21.628 -0.0142102 33.9821 0.358692 36.475C2.60992 50.6591 14.4668 60.2717 27.1869 58.5108C27.5944 58.4555 30.695 58.0619 33.8992 56.4736C28.2159 56.667 22.4497 54.8991 17.4431 51.0044Z" fill="#FEC232"/>
<path d="M21.076 7.67288C27.7883 4.94517 35.9023 7.53477 40.2874 13.4667C40.5774 13.294 40.7777 12.9349 40.6327 12.5551C38.4091 6.47131 33.2437 4.30985 31.9316 3.80574C28.6031 2.5213 25.1641 2.52821 22.2223 3.55024C17.2296 5.28354 14.7021 9.52358 14.4121 13.591C15.7932 11.0221 18.0583 8.90208 21.076 7.67288Z" fill="#FEC232"/>
<path d="M54.6377 12.4778C54.251 12.0427 52.9458 10.5511 51.2194 9.45312C53.5881 13.2581 54.6515 17.9056 53.9679 22.8707C52.4072 34.2166 42.1938 43.2146 30.5234 44.0778C30.5096 44.3678 30.6546 44.6648 30.9446 44.8167C31.4971 45.0929 32.5881 45.2034 33.4306 45.307C43.7614 46.5984 50.5151 40.5076 50.7844 40.2935C54.762 37.0686 57.3171 32.9667 58.3806 28.4988C59.5407 23.5958 59.0435 17.3738 54.6377 12.4778Z" fill="#FEC232"/>
</g>
<defs>
<clipPath id="clip0">
<rect width="117.644" height="100" fill="white"/>
</clipPath>
</defs>
</svg>
